<mxfile host="Electron" modified="2023-05-17T12:47:50.395Z" agent="Mozilla/5.0 (Windows NT 10.0; Win64; x64) AppleWebKit/537.36 (KHTML, like Gecko) draw.io/21.2.8 Chrome/112.0.5615.165 Electron/24.2.0 Safari/537.36" etag="wjEosREl4ELTh3JSfSs_" version="21.2.8" type="device">
  <diagram name="PÃ¡gina-1" id="49ChyUxOX3ig4t__MyXS">
    <mxGraphModel dx="2690" dy="606" grid="1" gridSize="10" guides="1" tooltips="1" connect="1" arrows="1" fold="1" page="1" pageScale="1" pageWidth="1654" pageHeight="2336" background="none" math="0" shadow="0">
      <root>
        <mxCell id="0" />
        <mxCell id="1" parent="0" />
        <mxCell id="fyKVwqR4OBI7BGviFpcx-1" value="Usuarios" style="rounded=0;whiteSpace=wrap;html=1;" vertex="1" parent="1">
          <mxGeometry x="-777" y="553" width="160" height="80" as="geometry" />
        </mxCell>
        <mxCell id="fyKVwqR4OBI7BGviFpcx-2" value="&lt;font style=&quot;font-size: 18px;&quot;&gt;MER TELA DE LISTAGEM DE VAGAS E CLIENTES&lt;/font&gt;" style="text;html=1;strokeColor=none;fillColor=none;align=center;verticalAlign=middle;whiteSpace=wrap;rounded=0;" vertex="1" parent="1">
          <mxGeometry x="-768" y="50" width="450" height="30" as="geometry" />
        </mxCell>
        <mxCell id="fyKVwqR4OBI7BGviFpcx-3" value="" style="ellipse;whiteSpace=wrap;html=1;aspect=fixed;fontSize=18;fillColor=#000000;" vertex="1" parent="1">
          <mxGeometry x="-787" y="683" width="20" height="20" as="geometry" />
        </mxCell>
        <mxCell id="fyKVwqR4OBI7BGviFpcx-4" value="" style="ellipse;whiteSpace=wrap;html=1;aspect=fixed;fontSize=18;" vertex="1" parent="1">
          <mxGeometry x="-627" y="683" width="20" height="20" as="geometry" />
        </mxCell>
        <mxCell id="fyKVwqR4OBI7BGviFpcx-5" value="" style="endArrow=none;html=1;rounded=0;fontSize=18;exitX=0;exitY=1;exitDx=0;exitDy=0;entryX=0.5;entryY=0;entryDx=0;entryDy=0;" edge="1" parent="1" source="fyKVwqR4OBI7BGviFpcx-1" target="fyKVwqR4OBI7BGviFpcx-3">
          <mxGeometry width="50" height="50" relative="1" as="geometry">
            <mxPoint x="-431" y="673" as="sourcePoint" />
            <mxPoint x="-381" y="623" as="targetPoint" />
          </mxGeometry>
        </mxCell>
        <mxCell id="fyKVwqR4OBI7BGviFpcx-6" value="" style="endArrow=none;html=1;rounded=0;fontSize=18;exitX=1;exitY=1;exitDx=0;exitDy=0;entryX=0.5;entryY=0;entryDx=0;entryDy=0;" edge="1" parent="1" source="fyKVwqR4OBI7BGviFpcx-1" target="fyKVwqR4OBI7BGviFpcx-4">
          <mxGeometry width="50" height="50" relative="1" as="geometry">
            <mxPoint x="-431" y="673" as="sourcePoint" />
            <mxPoint x="-381" y="623" as="targetPoint" />
          </mxGeometry>
        </mxCell>
        <mxCell id="fyKVwqR4OBI7BGviFpcx-7" value="" style="ellipse;whiteSpace=wrap;html=1;aspect=fixed;fontSize=18;" vertex="1" parent="1">
          <mxGeometry x="-667" y="683" width="20" height="20" as="geometry" />
        </mxCell>
        <mxCell id="fyKVwqR4OBI7BGviFpcx-8" value="" style="endArrow=none;html=1;rounded=0;fontSize=18;exitX=0.5;exitY=0;exitDx=0;exitDy=0;entryX=0.75;entryY=1;entryDx=0;entryDy=0;" edge="1" parent="1" source="fyKVwqR4OBI7BGviFpcx-7" target="fyKVwqR4OBI7BGviFpcx-1">
          <mxGeometry width="50" height="50" relative="1" as="geometry">
            <mxPoint x="-431" y="673" as="sourcePoint" />
            <mxPoint x="-381" y="623" as="targetPoint" />
          </mxGeometry>
        </mxCell>
        <mxCell id="fyKVwqR4OBI7BGviFpcx-9" value="" style="ellipse;whiteSpace=wrap;html=1;aspect=fixed;fontSize=18;" vertex="1" parent="1">
          <mxGeometry x="-707" y="683" width="20" height="20" as="geometry" />
        </mxCell>
        <mxCell id="fyKVwqR4OBI7BGviFpcx-10" value="" style="endArrow=none;html=1;rounded=0;fontSize=18;exitX=0.5;exitY=0;exitDx=0;exitDy=0;entryX=0.5;entryY=1;entryDx=0;entryDy=0;" edge="1" parent="1" source="fyKVwqR4OBI7BGviFpcx-9" target="fyKVwqR4OBI7BGviFpcx-1">
          <mxGeometry width="50" height="50" relative="1" as="geometry">
            <mxPoint x="-431" y="673" as="sourcePoint" />
            <mxPoint x="-381" y="623" as="targetPoint" />
          </mxGeometry>
        </mxCell>
        <mxCell id="fyKVwqR4OBI7BGviFpcx-11" value="" style="ellipse;whiteSpace=wrap;html=1;aspect=fixed;fontSize=18;" vertex="1" parent="1">
          <mxGeometry x="-748" y="683" width="20" height="20" as="geometry" />
        </mxCell>
        <mxCell id="fyKVwqR4OBI7BGviFpcx-12" value="" style="endArrow=none;html=1;rounded=0;fontSize=18;exitX=0.5;exitY=0;exitDx=0;exitDy=0;entryX=0.25;entryY=1;entryDx=0;entryDy=0;" edge="1" parent="1" source="fyKVwqR4OBI7BGviFpcx-11" target="fyKVwqR4OBI7BGviFpcx-1">
          <mxGeometry width="50" height="50" relative="1" as="geometry">
            <mxPoint x="-431" y="673" as="sourcePoint" />
            <mxPoint x="-381" y="623" as="targetPoint" />
          </mxGeometry>
        </mxCell>
        <mxCell id="fyKVwqR4OBI7BGviFpcx-13" value="ID" style="text;html=1;strokeColor=none;fillColor=none;align=center;verticalAlign=middle;whiteSpace=wrap;rounded=0;fontSize=18;rotation=90;" vertex="1" parent="1">
          <mxGeometry x="-807" y="733" width="60" height="30" as="geometry" />
        </mxCell>
        <mxCell id="fyKVwqR4OBI7BGviFpcx-14" value="Nome" style="text;html=1;strokeColor=none;fillColor=none;align=center;verticalAlign=middle;whiteSpace=wrap;rounded=0;fontSize=18;rotation=90;" vertex="1" parent="1">
          <mxGeometry x="-768" y="733" width="60" height="30" as="geometry" />
        </mxCell>
        <mxCell id="fyKVwqR4OBI7BGviFpcx-15" value="Endereco" style="text;html=1;strokeColor=none;fillColor=none;align=center;verticalAlign=middle;whiteSpace=wrap;rounded=0;fontSize=18;rotation=90;" vertex="1" parent="1">
          <mxGeometry x="-727" y="733" width="60" height="30" as="geometry" />
        </mxCell>
        <mxCell id="fyKVwqR4OBI7BGviFpcx-16" value="Celular" style="text;html=1;strokeColor=none;fillColor=none;align=center;verticalAlign=middle;whiteSpace=wrap;rounded=0;fontSize=18;rotation=90;" vertex="1" parent="1">
          <mxGeometry x="-687" y="733" width="60" height="30" as="geometry" />
        </mxCell>
        <mxCell id="fyKVwqR4OBI7BGviFpcx-17" value="Senha" style="text;html=1;strokeColor=none;fillColor=none;align=center;verticalAlign=middle;whiteSpace=wrap;rounded=0;fontSize=18;rotation=90;" vertex="1" parent="1">
          <mxGeometry x="-647" y="733" width="60" height="30" as="geometry" />
        </mxCell>
        <mxCell id="fyKVwqR4OBI7BGviFpcx-18" value="Cidades" style="rounded=0;whiteSpace=wrap;html=1;" vertex="1" parent="1">
          <mxGeometry x="-729" y="823.5" width="160" height="80" as="geometry" />
        </mxCell>
        <mxCell id="fyKVwqR4OBI7BGviFpcx-19" value="" style="ellipse;whiteSpace=wrap;html=1;aspect=fixed;fontSize=18;fillColor=#000000;" vertex="1" parent="1">
          <mxGeometry x="-700" y="953.5" width="20" height="20" as="geometry" />
        </mxCell>
        <mxCell id="fyKVwqR4OBI7BGviFpcx-20" value="" style="ellipse;whiteSpace=wrap;html=1;aspect=fixed;fontSize=18;" vertex="1" parent="1">
          <mxGeometry x="-619" y="953.5" width="20" height="20" as="geometry" />
        </mxCell>
        <mxCell id="fyKVwqR4OBI7BGviFpcx-21" value="" style="endArrow=none;html=1;rounded=0;fontSize=18;exitX=0.5;exitY=0;exitDx=0;exitDy=0;entryX=0.75;entryY=1;entryDx=0;entryDy=0;" edge="1" parent="1" source="fyKVwqR4OBI7BGviFpcx-20" target="fyKVwqR4OBI7BGviFpcx-18">
          <mxGeometry width="50" height="50" relative="1" as="geometry">
            <mxPoint x="-383" y="943.5" as="sourcePoint" />
            <mxPoint x="-333" y="893.5" as="targetPoint" />
          </mxGeometry>
        </mxCell>
        <mxCell id="fyKVwqR4OBI7BGviFpcx-22" value="" style="ellipse;whiteSpace=wrap;html=1;aspect=fixed;fontSize=18;" vertex="1" parent="1">
          <mxGeometry x="-659" y="953.5" width="20" height="20" as="geometry" />
        </mxCell>
        <mxCell id="fyKVwqR4OBI7BGviFpcx-23" value="" style="endArrow=none;html=1;rounded=0;fontSize=18;exitX=0.5;exitY=0;exitDx=0;exitDy=0;entryX=0.5;entryY=1;entryDx=0;entryDy=0;" edge="1" parent="1" source="fyKVwqR4OBI7BGviFpcx-22" target="fyKVwqR4OBI7BGviFpcx-18">
          <mxGeometry width="50" height="50" relative="1" as="geometry">
            <mxPoint x="-383" y="943.5" as="sourcePoint" />
            <mxPoint x="-333" y="893.5" as="targetPoint" />
          </mxGeometry>
        </mxCell>
        <mxCell id="fyKVwqR4OBI7BGviFpcx-24" value="" style="endArrow=none;html=1;rounded=0;fontSize=18;exitX=0.5;exitY=0;exitDx=0;exitDy=0;entryX=0.25;entryY=1;entryDx=0;entryDy=0;" edge="1" parent="1" source="fyKVwqR4OBI7BGviFpcx-19" target="fyKVwqR4OBI7BGviFpcx-18">
          <mxGeometry width="50" height="50" relative="1" as="geometry">
            <mxPoint x="-690" y="953.5" as="sourcePoint" />
            <mxPoint x="-333" y="893.5" as="targetPoint" />
          </mxGeometry>
        </mxCell>
        <mxCell id="fyKVwqR4OBI7BGviFpcx-25" value="ID" style="text;html=1;strokeColor=none;fillColor=none;align=center;verticalAlign=middle;whiteSpace=wrap;rounded=0;fontSize=18;rotation=90;" vertex="1" parent="1">
          <mxGeometry x="-720" y="1003.5" width="60" height="30" as="geometry" />
        </mxCell>
        <mxCell id="fyKVwqR4OBI7BGviFpcx-26" value="cidade" style="text;html=1;strokeColor=none;fillColor=none;align=center;verticalAlign=middle;whiteSpace=wrap;rounded=0;fontSize=18;rotation=90;" vertex="1" parent="1">
          <mxGeometry x="-679" y="1003.5" width="60" height="30" as="geometry" />
        </mxCell>
        <mxCell id="fyKVwqR4OBI7BGviFpcx-27" value="ID_Estado" style="text;html=1;strokeColor=none;fillColor=none;align=center;verticalAlign=middle;whiteSpace=wrap;rounded=0;fontSize=18;rotation=90;" vertex="1" parent="1">
          <mxGeometry x="-637" y="1014.5" width="60" height="30" as="geometry" />
        </mxCell>
        <mxCell id="fyKVwqR4OBI7BGviFpcx-28" value="" style="ellipse;whiteSpace=wrap;html=1;aspect=fixed;fontSize=18;" vertex="1" parent="1">
          <mxGeometry x="-787" y="478" width="20" height="20" as="geometry" />
        </mxCell>
        <mxCell id="fyKVwqR4OBI7BGviFpcx-29" value="" style="ellipse;whiteSpace=wrap;html=1;aspect=fixed;fontSize=18;" vertex="1" parent="1">
          <mxGeometry x="-627" y="478" width="20" height="20" as="geometry" />
        </mxCell>
        <mxCell id="fyKVwqR4OBI7BGviFpcx-30" value="" style="ellipse;whiteSpace=wrap;html=1;aspect=fixed;fontSize=18;" vertex="1" parent="1">
          <mxGeometry x="-667" y="478" width="20" height="20" as="geometry" />
        </mxCell>
        <mxCell id="fyKVwqR4OBI7BGviFpcx-31" value="" style="ellipse;whiteSpace=wrap;html=1;aspect=fixed;fontSize=18;" vertex="1" parent="1">
          <mxGeometry x="-707" y="478" width="20" height="20" as="geometry" />
        </mxCell>
        <mxCell id="fyKVwqR4OBI7BGviFpcx-32" value="" style="ellipse;whiteSpace=wrap;html=1;aspect=fixed;fontSize=18;" vertex="1" parent="1">
          <mxGeometry x="-748" y="478" width="20" height="20" as="geometry" />
        </mxCell>
        <mxCell id="fyKVwqR4OBI7BGviFpcx-33" value="" style="endArrow=none;html=1;rounded=0;fontSize=18;entryX=0.5;entryY=1;entryDx=0;entryDy=0;exitX=0;exitY=0;exitDx=0;exitDy=0;" edge="1" parent="1" source="fyKVwqR4OBI7BGviFpcx-1" target="fyKVwqR4OBI7BGviFpcx-28">
          <mxGeometry width="50" height="50" relative="1" as="geometry">
            <mxPoint x="-397" y="573" as="sourcePoint" />
            <mxPoint x="-347" y="523" as="targetPoint" />
          </mxGeometry>
        </mxCell>
        <mxCell id="fyKVwqR4OBI7BGviFpcx-34" value="" style="endArrow=none;html=1;rounded=0;fontSize=18;entryX=0.5;entryY=1;entryDx=0;entryDy=0;exitX=0.25;exitY=0;exitDx=0;exitDy=0;" edge="1" parent="1" source="fyKVwqR4OBI7BGviFpcx-1" target="fyKVwqR4OBI7BGviFpcx-32">
          <mxGeometry width="50" height="50" relative="1" as="geometry">
            <mxPoint x="-397" y="573" as="sourcePoint" />
            <mxPoint x="-347" y="523" as="targetPoint" />
          </mxGeometry>
        </mxCell>
        <mxCell id="fyKVwqR4OBI7BGviFpcx-35" value="" style="endArrow=none;html=1;rounded=0;fontSize=18;entryX=0.5;entryY=1;entryDx=0;entryDy=0;exitX=0.5;exitY=0;exitDx=0;exitDy=0;" edge="1" parent="1" source="fyKVwqR4OBI7BGviFpcx-1" target="fyKVwqR4OBI7BGviFpcx-31">
          <mxGeometry width="50" height="50" relative="1" as="geometry">
            <mxPoint x="-397" y="573" as="sourcePoint" />
            <mxPoint x="-347" y="523" as="targetPoint" />
          </mxGeometry>
        </mxCell>
        <mxCell id="fyKVwqR4OBI7BGviFpcx-36" value="" style="endArrow=none;html=1;rounded=0;fontSize=18;entryX=0.5;entryY=1;entryDx=0;entryDy=0;exitX=0.75;exitY=0;exitDx=0;exitDy=0;" edge="1" parent="1" source="fyKVwqR4OBI7BGviFpcx-1" target="fyKVwqR4OBI7BGviFpcx-30">
          <mxGeometry width="50" height="50" relative="1" as="geometry">
            <mxPoint x="-397" y="573" as="sourcePoint" />
            <mxPoint x="-347" y="523" as="targetPoint" />
          </mxGeometry>
        </mxCell>
        <mxCell id="fyKVwqR4OBI7BGviFpcx-37" value="" style="endArrow=none;html=1;rounded=0;fontSize=18;entryX=0.5;entryY=1;entryDx=0;entryDy=0;exitX=1;exitY=0;exitDx=0;exitDy=0;" edge="1" parent="1" source="fyKVwqR4OBI7BGviFpcx-1" target="fyKVwqR4OBI7BGviFpcx-29">
          <mxGeometry width="50" height="50" relative="1" as="geometry">
            <mxPoint x="-397" y="573" as="sourcePoint" />
            <mxPoint x="-347" y="523" as="targetPoint" />
          </mxGeometry>
        </mxCell>
        <mxCell id="fyKVwqR4OBI7BGviFpcx-38" value="Data_nasc" style="text;html=1;strokeColor=none;fillColor=none;align=center;verticalAlign=middle;whiteSpace=wrap;rounded=0;fontSize=18;rotation=90;" vertex="1" parent="1">
          <mxGeometry x="-814" y="395" width="70" height="30" as="geometry" />
        </mxCell>
        <mxCell id="fyKVwqR4OBI7BGviFpcx-39" value="CPF" style="text;html=1;strokeColor=none;fillColor=none;align=center;verticalAlign=middle;whiteSpace=wrap;rounded=0;fontSize=18;rotation=90;" vertex="1" parent="1">
          <mxGeometry x="-770" y="419" width="60" height="30" as="geometry" />
        </mxCell>
        <mxCell id="fyKVwqR4OBI7BGviFpcx-40" value="Email" style="text;html=1;strokeColor=none;fillColor=none;align=center;verticalAlign=middle;whiteSpace=wrap;rounded=0;fontSize=18;rotation=90;" vertex="1" parent="1">
          <mxGeometry x="-729" y="419" width="60" height="30" as="geometry" />
        </mxCell>
        <mxCell id="fyKVwqR4OBI7BGviFpcx-41" value="Link" style="text;html=1;strokeColor=none;fillColor=none;align=center;verticalAlign=middle;whiteSpace=wrap;rounded=0;fontSize=18;rotation=90;" vertex="1" parent="1">
          <mxGeometry x="-687" y="425" width="60" height="30" as="geometry" />
        </mxCell>
        <mxCell id="fyKVwqR4OBI7BGviFpcx-42" value="CEP" style="text;html=1;strokeColor=none;fillColor=none;align=center;verticalAlign=middle;whiteSpace=wrap;rounded=0;fontSize=18;rotation=90;" vertex="1" parent="1">
          <mxGeometry x="-649" y="419" width="60" height="30" as="geometry" />
        </mxCell>
        <mxCell id="fyKVwqR4OBI7BGviFpcx-43" value="Tipos" style="rounded=0;whiteSpace=wrap;html=1;" vertex="1" parent="1">
          <mxGeometry x="-296" y="553" width="160" height="80" as="geometry" />
        </mxCell>
        <mxCell id="fyKVwqR4OBI7BGviFpcx-44" value="" style="ellipse;whiteSpace=wrap;html=1;aspect=fixed;fontSize=18;fillColor=#000000;" vertex="1" parent="1">
          <mxGeometry x="-266" y="682" width="20" height="20" as="geometry" />
        </mxCell>
        <mxCell id="fyKVwqR4OBI7BGviFpcx-45" value="" style="ellipse;whiteSpace=wrap;html=1;aspect=fixed;fontSize=18;" vertex="1" parent="1">
          <mxGeometry x="-186" y="683" width="20" height="20" as="geometry" />
        </mxCell>
        <mxCell id="fyKVwqR4OBI7BGviFpcx-46" value="ID" style="text;html=1;strokeColor=none;fillColor=none;align=center;verticalAlign=middle;whiteSpace=wrap;rounded=0;fontSize=18;rotation=90;" vertex="1" parent="1">
          <mxGeometry x="-286" y="723" width="60" height="30" as="geometry" />
        </mxCell>
        <mxCell id="fyKVwqR4OBI7BGviFpcx-47" value="tipo" style="text;html=1;strokeColor=none;fillColor=none;align=center;verticalAlign=middle;whiteSpace=wrap;rounded=0;fontSize=18;rotation=90;" vertex="1" parent="1">
          <mxGeometry x="-205" y="723" width="60" height="30" as="geometry" />
        </mxCell>
        <mxCell id="fyKVwqR4OBI7BGviFpcx-48" value="" style="endArrow=none;html=1;rounded=0;exitX=0.5;exitY=0;exitDx=0;exitDy=0;entryX=0.25;entryY=1;entryDx=0;entryDy=0;" edge="1" parent="1" source="fyKVwqR4OBI7BGviFpcx-44" target="fyKVwqR4OBI7BGviFpcx-43">
          <mxGeometry width="50" height="50" relative="1" as="geometry">
            <mxPoint x="-60" y="733" as="sourcePoint" />
            <mxPoint x="-10" y="683" as="targetPoint" />
          </mxGeometry>
        </mxCell>
        <mxCell id="fyKVwqR4OBI7BGviFpcx-49" value="" style="endArrow=none;html=1;rounded=0;exitX=0.5;exitY=0;exitDx=0;exitDy=0;entryX=0.75;entryY=1;entryDx=0;entryDy=0;" edge="1" parent="1" source="fyKVwqR4OBI7BGviFpcx-45" target="fyKVwqR4OBI7BGviFpcx-43">
          <mxGeometry width="50" height="50" relative="1" as="geometry">
            <mxPoint x="-205" y="713" as="sourcePoint" />
            <mxPoint x="-155" y="663" as="targetPoint" />
          </mxGeometry>
        </mxCell>
        <mxCell id="fyKVwqR4OBI7BGviFpcx-50" value="Estados" style="rounded=0;whiteSpace=wrap;html=1;" vertex="1" parent="1">
          <mxGeometry x="-295" y="823.5" width="160" height="80" as="geometry" />
        </mxCell>
        <mxCell id="fyKVwqR4OBI7BGviFpcx-51" value="" style="ellipse;whiteSpace=wrap;html=1;aspect=fixed;fontSize=18;fillColor=#000000;" vertex="1" parent="1">
          <mxGeometry x="-265" y="952.5" width="20" height="20" as="geometry" />
        </mxCell>
        <mxCell id="fyKVwqR4OBI7BGviFpcx-52" value="" style="ellipse;whiteSpace=wrap;html=1;aspect=fixed;fontSize=18;" vertex="1" parent="1">
          <mxGeometry x="-185" y="953.5" width="20" height="20" as="geometry" />
        </mxCell>
        <mxCell id="fyKVwqR4OBI7BGviFpcx-53" value="ID" style="text;html=1;strokeColor=none;fillColor=none;align=center;verticalAlign=middle;whiteSpace=wrap;rounded=0;fontSize=18;rotation=90;" vertex="1" parent="1">
          <mxGeometry x="-285" y="989" width="60" height="30" as="geometry" />
        </mxCell>
        <mxCell id="fyKVwqR4OBI7BGviFpcx-54" value="estado" style="text;html=1;strokeColor=none;fillColor=none;align=center;verticalAlign=middle;whiteSpace=wrap;rounded=0;fontSize=18;rotation=90;" vertex="1" parent="1">
          <mxGeometry x="-205" y="1003.5" width="60" height="30" as="geometry" />
        </mxCell>
        <mxCell id="fyKVwqR4OBI7BGviFpcx-55" value="" style="endArrow=none;html=1;rounded=0;exitX=0.5;exitY=0;exitDx=0;exitDy=0;entryX=0.25;entryY=1;entryDx=0;entryDy=0;" edge="1" parent="1" source="fyKVwqR4OBI7BGviFpcx-51" target="fyKVwqR4OBI7BGviFpcx-50">
          <mxGeometry width="50" height="50" relative="1" as="geometry">
            <mxPoint x="-59" y="1003.5" as="sourcePoint" />
            <mxPoint x="-9" y="953.5" as="targetPoint" />
          </mxGeometry>
        </mxCell>
        <mxCell id="fyKVwqR4OBI7BGviFpcx-56" value="" style="endArrow=none;html=1;rounded=0;exitX=0.5;exitY=0;exitDx=0;exitDy=0;entryX=0.75;entryY=1;entryDx=0;entryDy=0;" edge="1" parent="1" source="fyKVwqR4OBI7BGviFpcx-52" target="fyKVwqR4OBI7BGviFpcx-50">
          <mxGeometry width="50" height="50" relative="1" as="geometry">
            <mxPoint x="-204" y="983.5" as="sourcePoint" />
            <mxPoint x="-154" y="933.5" as="targetPoint" />
          </mxGeometry>
        </mxCell>
        <mxCell id="fyKVwqR4OBI7BGviFpcx-57" value="Possui" style="rhombus;whiteSpace=wrap;html=1;" vertex="1" parent="1">
          <mxGeometry x="-526" y="558" width="150" height="70" as="geometry" />
        </mxCell>
        <mxCell id="fyKVwqR4OBI7BGviFpcx-58" value="" style="endArrow=none;html=1;rounded=0;exitX=1;exitY=0.5;exitDx=0;exitDy=0;entryX=0;entryY=0.5;entryDx=0;entryDy=0;" edge="1" parent="1" source="fyKVwqR4OBI7BGviFpcx-1" target="fyKVwqR4OBI7BGviFpcx-57">
          <mxGeometry width="50" height="50" relative="1" as="geometry">
            <mxPoint x="-411" y="753" as="sourcePoint" />
            <mxPoint x="-361" y="703" as="targetPoint" />
          </mxGeometry>
        </mxCell>
        <mxCell id="fyKVwqR4OBI7BGviFpcx-59" value="" style="endArrow=none;html=1;rounded=0;exitX=1;exitY=0.5;exitDx=0;exitDy=0;entryX=0;entryY=0.5;entryDx=0;entryDy=0;" edge="1" parent="1" source="fyKVwqR4OBI7BGviFpcx-57" target="fyKVwqR4OBI7BGviFpcx-43">
          <mxGeometry width="50" height="50" relative="1" as="geometry">
            <mxPoint x="-411" y="753" as="sourcePoint" />
            <mxPoint x="-361" y="703" as="targetPoint" />
          </mxGeometry>
        </mxCell>
        <mxCell id="fyKVwqR4OBI7BGviFpcx-60" value="Possui" style="rhombus;whiteSpace=wrap;html=1;" vertex="1" parent="1">
          <mxGeometry x="-508" y="828.5" width="150" height="70" as="geometry" />
        </mxCell>
        <mxCell id="fyKVwqR4OBI7BGviFpcx-61" value="" style="endArrow=none;html=1;rounded=0;exitX=1;exitY=0.5;exitDx=0;exitDy=0;entryX=0;entryY=0.5;entryDx=0;entryDy=0;" edge="1" parent="1" source="fyKVwqR4OBI7BGviFpcx-18" target="fyKVwqR4OBI7BGviFpcx-60">
          <mxGeometry width="50" height="50" relative="1" as="geometry">
            <mxPoint x="-387" y="803.5" as="sourcePoint" />
            <mxPoint x="-337" y="753.5" as="targetPoint" />
          </mxGeometry>
        </mxCell>
        <mxCell id="fyKVwqR4OBI7BGviFpcx-62" value="" style="endArrow=none;html=1;rounded=0;exitX=1;exitY=0.5;exitDx=0;exitDy=0;entryX=0;entryY=0.5;entryDx=0;entryDy=0;" edge="1" parent="1" source="fyKVwqR4OBI7BGviFpcx-60" target="fyKVwqR4OBI7BGviFpcx-50">
          <mxGeometry width="50" height="50" relative="1" as="geometry">
            <mxPoint x="-399" y="803.5" as="sourcePoint" />
            <mxPoint x="-299" y="863.5" as="targetPoint" />
          </mxGeometry>
        </mxCell>
        <mxCell id="fyKVwqR4OBI7BGviFpcx-63" value="(1, 1)" style="text;html=1;strokeColor=none;fillColor=none;align=center;verticalAlign=middle;whiteSpace=wrap;rounded=0;" vertex="1" parent="1">
          <mxGeometry x="-346" y="569" width="60" height="30" as="geometry" />
        </mxCell>
        <mxCell id="fyKVwqR4OBI7BGviFpcx-64" value="(1, 1)" style="text;html=1;strokeColor=none;fillColor=none;align=center;verticalAlign=middle;whiteSpace=wrap;rounded=0;" vertex="1" parent="1">
          <mxGeometry x="-627" y="569" width="60" height="30" as="geometry" />
        </mxCell>
        <mxCell id="fyKVwqR4OBI7BGviFpcx-65" value="(1, n)" style="text;html=1;strokeColor=none;fillColor=none;align=center;verticalAlign=middle;whiteSpace=wrap;rounded=0;" vertex="1" parent="1">
          <mxGeometry x="-827" y="569" width="60" height="30" as="geometry" />
        </mxCell>
        <mxCell id="fyKVwqR4OBI7BGviFpcx-66" value="(1, n)" style="text;html=1;strokeColor=none;fillColor=none;align=center;verticalAlign=middle;whiteSpace=wrap;rounded=0;" vertex="1" parent="1">
          <mxGeometry x="-780" y="859" width="60" height="30" as="geometry" />
        </mxCell>
        <mxCell id="fyKVwqR4OBI7BGviFpcx-67" value="(1, 1)" style="text;html=1;strokeColor=none;fillColor=none;align=center;verticalAlign=middle;whiteSpace=wrap;rounded=0;" vertex="1" parent="1">
          <mxGeometry x="-577" y="839" width="60" height="30" as="geometry" />
        </mxCell>
        <mxCell id="fyKVwqR4OBI7BGviFpcx-68" value="(1, 1)" style="text;html=1;strokeColor=none;fillColor=none;align=center;verticalAlign=middle;whiteSpace=wrap;rounded=0;" vertex="1" parent="1">
          <mxGeometry x="-345" y="839" width="60" height="30" as="geometry" />
        </mxCell>
        <mxCell id="fyKVwqR4OBI7BGviFpcx-69" value="" style="endArrow=none;html=1;rounded=0;fontSize=18;" edge="1" parent="1">
          <mxGeometry width="50" height="50" relative="1" as="geometry">
            <mxPoint x="-777" y="569" as="sourcePoint" />
            <mxPoint x="-837" y="569" as="targetPoint" />
          </mxGeometry>
        </mxCell>
        <mxCell id="fyKVwqR4OBI7BGviFpcx-70" value="" style="ellipse;whiteSpace=wrap;html=1;aspect=fixed;fontSize=18;" vertex="1" parent="1">
          <mxGeometry x="-858" y="558" width="20" height="20" as="geometry" />
        </mxCell>
        <mxCell id="fyKVwqR4OBI7BGviFpcx-71" value="imagem" style="text;html=1;strokeColor=none;fillColor=none;align=center;verticalAlign=middle;whiteSpace=wrap;rounded=0;fontSize=18;rotation=0;" vertex="1" parent="1">
          <mxGeometry x="-931" y="548" width="70" height="30" as="geometry" />
        </mxCell>
        <mxCell id="fyKVwqR4OBI7BGviFpcx-72" value="Sexos" style="rounded=0;whiteSpace=wrap;html=1;" vertex="1" parent="1">
          <mxGeometry x="-296" y="334" width="160" height="80" as="geometry" />
        </mxCell>
        <mxCell id="fyKVwqR4OBI7BGviFpcx-73" value="" style="ellipse;whiteSpace=wrap;html=1;aspect=fixed;fontSize=18;fillColor=#000000;" vertex="1" parent="1">
          <mxGeometry x="-266" y="458" width="20" height="20" as="geometry" />
        </mxCell>
        <mxCell id="fyKVwqR4OBI7BGviFpcx-74" value="" style="ellipse;whiteSpace=wrap;html=1;aspect=fixed;fontSize=18;" vertex="1" parent="1">
          <mxGeometry x="-186" y="458" width="20" height="20" as="geometry" />
        </mxCell>
        <mxCell id="fyKVwqR4OBI7BGviFpcx-75" value="ID" style="text;html=1;strokeColor=none;fillColor=none;align=center;verticalAlign=middle;whiteSpace=wrap;rounded=0;fontSize=18;rotation=90;" vertex="1" parent="1">
          <mxGeometry x="-286" y="489" width="60" height="30" as="geometry" />
        </mxCell>
        <mxCell id="fyKVwqR4OBI7BGviFpcx-76" value="sexo" style="text;html=1;strokeColor=none;fillColor=none;align=center;verticalAlign=middle;whiteSpace=wrap;rounded=0;fontSize=18;rotation=90;" vertex="1" parent="1">
          <mxGeometry x="-205" y="489" width="60" height="30" as="geometry" />
        </mxCell>
        <mxCell id="fyKVwqR4OBI7BGviFpcx-77" value="" style="endArrow=none;html=1;rounded=0;exitX=0.5;exitY=0;exitDx=0;exitDy=0;entryX=0.25;entryY=1;entryDx=0;entryDy=0;" edge="1" parent="1" source="fyKVwqR4OBI7BGviFpcx-73" target="fyKVwqR4OBI7BGviFpcx-72">
          <mxGeometry width="50" height="50" relative="1" as="geometry">
            <mxPoint x="-90" y="508" as="sourcePoint" />
            <mxPoint x="-40" y="458" as="targetPoint" />
          </mxGeometry>
        </mxCell>
        <mxCell id="fyKVwqR4OBI7BGviFpcx-78" value="" style="endArrow=none;html=1;rounded=0;exitX=0.5;exitY=0;exitDx=0;exitDy=0;entryX=0.75;entryY=1;entryDx=0;entryDy=0;" edge="1" parent="1" source="fyKVwqR4OBI7BGviFpcx-74" target="fyKVwqR4OBI7BGviFpcx-72">
          <mxGeometry width="50" height="50" relative="1" as="geometry">
            <mxPoint x="-235" y="488" as="sourcePoint" />
            <mxPoint x="-185" y="438" as="targetPoint" />
          </mxGeometry>
        </mxCell>
        <mxCell id="fyKVwqR4OBI7BGviFpcx-79" value="Possui" style="rhombus;whiteSpace=wrap;html=1;" vertex="1" parent="1">
          <mxGeometry x="-552" y="428" width="150" height="70" as="geometry" />
        </mxCell>
        <mxCell id="fyKVwqR4OBI7BGviFpcx-80" value="" style="endArrow=none;html=1;rounded=0;entryX=0;entryY=0.5;entryDx=0;entryDy=0;exitX=1;exitY=0.5;exitDx=0;exitDy=0;" edge="1" parent="1" source="fyKVwqR4OBI7BGviFpcx-79" target="fyKVwqR4OBI7BGviFpcx-72">
          <mxGeometry width="50" height="50" relative="1" as="geometry">
            <mxPoint x="-562" y="509" as="sourcePoint" />
            <mxPoint x="-512" y="459" as="targetPoint" />
          </mxGeometry>
        </mxCell>
        <mxCell id="fyKVwqR4OBI7BGviFpcx-81" value="" style="endArrow=none;html=1;rounded=0;entryX=0;entryY=0.5;entryDx=0;entryDy=0;exitX=1;exitY=0.25;exitDx=0;exitDy=0;" edge="1" parent="1" source="fyKVwqR4OBI7BGviFpcx-1" target="fyKVwqR4OBI7BGviFpcx-79">
          <mxGeometry width="50" height="50" relative="1" as="geometry">
            <mxPoint x="-542" y="349" as="sourcePoint" />
            <mxPoint x="-492" y="299" as="targetPoint" />
          </mxGeometry>
        </mxCell>
        <mxCell id="fyKVwqR4OBI7BGviFpcx-82" value="" style="ellipse;whiteSpace=wrap;html=1;aspect=fixed;fontSize=18;" vertex="1" parent="1">
          <mxGeometry x="-567" y="603" width="20" height="20" as="geometry" />
        </mxCell>
        <mxCell id="fyKVwqR4OBI7BGviFpcx-83" value="" style="endArrow=none;html=1;rounded=0;exitX=1;exitY=0.75;exitDx=0;exitDy=0;entryX=0;entryY=0.5;entryDx=0;entryDy=0;" edge="1" parent="1" source="fyKVwqR4OBI7BGviFpcx-1" target="fyKVwqR4OBI7BGviFpcx-82">
          <mxGeometry width="50" height="50" relative="1" as="geometry">
            <mxPoint x="-565" y="599" as="sourcePoint" />
            <mxPoint x="-515" y="549" as="targetPoint" />
          </mxGeometry>
        </mxCell>
        <mxCell id="fyKVwqR4OBI7BGviFpcx-84" value="preÃ§o" style="text;html=1;strokeColor=none;fillColor=none;align=center;verticalAlign=middle;whiteSpace=wrap;rounded=0;fontSize=18;rotation=0;" vertex="1" parent="1">
          <mxGeometry x="-563" y="619" width="70" height="30" as="geometry" />
        </mxCell>
        <mxCell id="fyKVwqR4OBI7BGviFpcx-85" value="" style="ellipse;whiteSpace=wrap;html=1;aspect=fixed;fontSize=18;" vertex="1" parent="1">
          <mxGeometry x="-847" y="603" width="20" height="20" as="geometry" />
        </mxCell>
        <mxCell id="fyKVwqR4OBI7BGviFpcx-86" value="" style="endArrow=none;html=1;rounded=0;exitX=1;exitY=0.5;exitDx=0;exitDy=0;entryX=0;entryY=0.75;entryDx=0;entryDy=0;" edge="1" parent="1" source="fyKVwqR4OBI7BGviFpcx-85" target="fyKVwqR4OBI7BGviFpcx-1">
          <mxGeometry width="50" height="50" relative="1" as="geometry">
            <mxPoint x="-565" y="649" as="sourcePoint" />
            <mxPoint x="-515" y="599" as="targetPoint" />
          </mxGeometry>
        </mxCell>
        <mxCell id="fyKVwqR4OBI7BGviFpcx-87" value="descricao" style="text;html=1;strokeColor=none;fillColor=none;align=center;verticalAlign=middle;whiteSpace=wrap;rounded=0;fontSize=18;rotation=0;" vertex="1" parent="1">
          <mxGeometry x="-857" y="628" width="70" height="30" as="geometry" />
        </mxCell>
        <mxCell id="fyKVwqR4OBI7BGviFpcx-88" value="(1, 1)" style="text;html=1;strokeColor=none;fillColor=none;align=center;verticalAlign=middle;whiteSpace=wrap;rounded=0;rotation=-50;" vertex="1" parent="1">
          <mxGeometry x="-386" y="359" width="60" height="30" as="geometry" />
        </mxCell>
        <mxCell id="fyKVwqR4OBI7BGviFpcx-89" value="(1, 1)" style="text;html=1;strokeColor=none;fillColor=none;align=center;verticalAlign=middle;whiteSpace=wrap;rounded=0;rotation=-60;" vertex="1" parent="1">
          <mxGeometry x="-617" y="473" width="60" height="30" as="geometry" />
        </mxCell>
        <mxCell id="fyKVwqR4OBI7BGviFpcx-90" value="" style="endArrow=none;html=1;rounded=0;entryX=0;entryY=0.5;entryDx=0;entryDy=0;exitX=0;exitY=0.75;exitDx=0;exitDy=0;" edge="1" parent="1" source="fyKVwqR4OBI7BGviFpcx-18" target="fyKVwqR4OBI7BGviFpcx-1">
          <mxGeometry width="50" height="50" relative="1" as="geometry">
            <mxPoint x="-885" y="839" as="sourcePoint" />
            <mxPoint x="-835" y="789" as="targetPoint" />
            <Array as="points">
              <mxPoint x="-895" y="884" />
              <mxPoint x="-895" y="593" />
            </Array>
          </mxGeometry>
        </mxCell>
        <mxCell id="fyKVwqR4OBI7BGviFpcx-91" value="Favoritos" style="rounded=0;whiteSpace=wrap;html=1;" vertex="1" parent="1">
          <mxGeometry x="-799" y="240" width="160" height="80" as="geometry" />
        </mxCell>
        <mxCell id="fyKVwqR4OBI7BGviFpcx-92" value="" style="endArrow=none;html=1;rounded=0;entryX=0;entryY=0.5;entryDx=0;entryDy=0;exitX=0;exitY=0;exitDx=0;exitDy=0;" edge="1" parent="1" source="fyKVwqR4OBI7BGviFpcx-1" target="fyKVwqR4OBI7BGviFpcx-91">
          <mxGeometry width="50" height="50" relative="1" as="geometry">
            <mxPoint x="-865" y="210" as="sourcePoint" />
            <mxPoint x="-515" y="380" as="targetPoint" />
            <Array as="points">
              <mxPoint x="-875" y="550" />
              <mxPoint x="-875" y="280" />
            </Array>
          </mxGeometry>
        </mxCell>
        <mxCell id="fyKVwqR4OBI7BGviFpcx-93" value="" style="ellipse;whiteSpace=wrap;html=1;aspect=fixed;fontSize=18;fillColor=#000000;" vertex="1" parent="1">
          <mxGeometry x="-583" y="250" width="20" height="20" as="geometry" />
        </mxCell>
        <mxCell id="fyKVwqR4OBI7BGviFpcx-94" value="" style="endArrow=none;html=1;rounded=0;exitX=1;exitY=0.25;exitDx=0;exitDy=0;entryX=0;entryY=0.5;entryDx=0;entryDy=0;" edge="1" parent="1" source="fyKVwqR4OBI7BGviFpcx-91" target="fyKVwqR4OBI7BGviFpcx-93">
          <mxGeometry width="50" height="50" relative="1" as="geometry">
            <mxPoint x="-505" y="250" as="sourcePoint" />
            <mxPoint x="-455" y="200" as="targetPoint" />
          </mxGeometry>
        </mxCell>
        <mxCell id="fyKVwqR4OBI7BGviFpcx-95" value="" style="ellipse;whiteSpace=wrap;html=1;aspect=fixed;fontSize=18;fillColor=#ffffff;" vertex="1" parent="1">
          <mxGeometry x="-583" y="290" width="20" height="20" as="geometry" />
        </mxCell>
        <mxCell id="fyKVwqR4OBI7BGviFpcx-96" value="" style="endArrow=none;html=1;rounded=0;exitX=1;exitY=0.75;exitDx=0;exitDy=0;entryX=0;entryY=0.5;entryDx=0;entryDy=0;" edge="1" parent="1" source="fyKVwqR4OBI7BGviFpcx-91" target="fyKVwqR4OBI7BGviFpcx-95">
          <mxGeometry width="50" height="50" relative="1" as="geometry">
            <mxPoint x="-502" y="335" as="sourcePoint" />
            <mxPoint x="-575" y="300" as="targetPoint" />
          </mxGeometry>
        </mxCell>
        <mxCell id="fyKVwqR4OBI7BGviFpcx-97" value="idFavoritos" style="text;html=1;strokeColor=none;fillColor=none;align=center;verticalAlign=middle;whiteSpace=wrap;rounded=0;fontSize=18;rotation=0;" vertex="1" parent="1">
          <mxGeometry x="-538" y="250" width="103" height="30" as="geometry" />
        </mxCell>
        <mxCell id="fyKVwqR4OBI7BGviFpcx-98" value="idUsuario" style="text;html=1;strokeColor=none;fillColor=none;align=center;verticalAlign=middle;whiteSpace=wrap;rounded=0;fontSize=18;rotation=0;" vertex="1" parent="1">
          <mxGeometry x="-547" y="285" width="103" height="30" as="geometry" />
        </mxCell>
      </root>
    </mxGraphModel>
  </diagram>
</mxfile>
